<?xml version="1.0" encoding="UTF-8"?>
<svg id="Calque_1" data-name="Calque 1" xmlns="http://www.w3.org/2000/svg" viewBox="0 0 665.51 438.76">
  <defs>
    <style>
      .cls-1 {
        fill: #000;
        stroke-width: 0px;
      }
    </style>
  </defs>
  <g>
    <path class="cls-1" d="M107.65,299.69v-29.44h8.32l7.83,20.39h.08v-20.39h5.75v29.44h-8.12l-8.03-21.53h-.08v21.53h-5.75Z"/>
    <path class="cls-1" d="M134.52,284.96c0-7.79,0-15.21,10.15-15.21s10.15,7.42,10.15,15.21,0,15.21-10.15,15.21-10.15-7.5-10.15-15.21ZM148.59,284.96c0-7.54-.45-10.81-3.92-10.81s-3.91,3.26-3.91,10.81.45,10.8,3.91,10.8,3.92-3.26,3.92-10.8Z"/>
    <path class="cls-1" d="M167.71,300.17c-7.63,0-9.05-4.49-8.73-9.58h6.16c0,2.81.12,5.18,3.51,5.18,2.08,0,3.1-1.34,3.1-3.34,0-5.3-12.4-5.63-12.4-14.39,0-4.61,2.2-8.28,9.71-8.28,5.99,0,8.97,2.69,8.56,8.85h-5.99c0-2.2-.37-4.44-2.85-4.44-2,0-3.18,1.1-3.18,3.14,0,5.59,12.4,5.1,12.4,14.35,0,7.63-5.59,8.52-10.28,8.52Z"/>
    <path class="cls-1" d="M191.45,299.69v-29.44h16.07v4.53h-9.91v7.26h9.13v4.53h-9.13v8.61h10.24v4.53h-16.39Z"/>
    <path class="cls-1" d="M209.92,270.24h7.01l4.2,9.67,4.12-9.67h6.4l-7.34,14.56,7.46,14.88h-6.97l-4.53-10.15-4.53,10.15h-6.36l7.63-15.41-7.1-14.03Z"/>
    <path class="cls-1" d="M234.55,270.24h11.09c5.63,0,7.83,3.43,7.83,8.81,0,3.34-.98,8.64-8.2,8.64h-4.57v11.99h-6.16v-29.44ZM240.71,283.17h3.43c1.83,0,3.1-2,3.1-3.96,0-2.41-.65-4.44-3.42-4.44h-3.1v8.4Z"/>
    <path class="cls-1" d="M257.18,299.69v-29.44h16.07v4.53h-9.91v7.26h9.13v4.53h-9.13v8.61h10.24v4.53h-16.39Z"/>
    <path class="cls-1" d="M283.61,299.69h-6.16v-29.44h11.38c4.2,0,6.89,2.69,6.89,7.71,0,3.75-1.47,6.57-5.46,7.22v.08c1.35.16,5.34.49,5.34,5.79,0,1.88.12,7.42.69,8.65h-6.04c-.81-1.79-.65-3.79-.65-5.71,0-3.51.33-6.48-4.4-6.48h-1.59v12.19ZM283.61,282.97h2.73c2.45,0,3.14-2.45,3.14-4.32,0-2.81-1.18-3.87-3.14-3.87h-2.73v8.2Z"/>
    <path class="cls-1" d="M317.78,270.24v4.89h-6.85v24.55h-6.16v-24.55h-6.85v-4.89h19.86Z"/>
    <path class="cls-1" d="M328.62,300.17c-7.63,0-9.05-4.49-8.73-9.58h6.16c0,2.81.12,5.18,3.51,5.18,2.08,0,3.1-1.34,3.1-3.34,0-5.3-12.4-5.63-12.4-14.39,0-4.61,2.2-8.28,9.71-8.28,5.99,0,8.97,2.69,8.56,8.85h-5.99c0-2.2-.37-4.44-2.85-4.44-2,0-3.18,1.1-3.18,3.14,0,5.59,12.4,5.1,12.4,14.35,0,7.63-5.59,8.52-10.28,8.52Z"/>
    <path class="cls-1" d="M352.78,299.68l8.16-29.44h8.12l7.99,29.44h-6.48l-1.63-6.53h-8.4l-1.67,6.53h-6.08ZM364.65,275.91h-.08l-2.81,12.72h5.87l-2.98-12.72Z"/>
    <path class="cls-1" d="M399.84,270.24v20.88c0,4.4-2.49,9.05-9.99,9.05-6.77,0-10.03-3.51-10.03-9.05v-20.88h6.16v20.47c0,3.63,1.55,5.06,3.79,5.06,2.69,0,3.92-1.79,3.92-5.06v-20.47h6.16Z"/>
    <path class="cls-1" d="M421.9,300.17c-7.63,0-9.05-4.49-8.73-9.58h6.16c0,2.81.12,5.18,3.51,5.18,2.08,0,3.1-1.35,3.1-3.34,0-5.3-12.4-5.63-12.4-14.4,0-4.61,2.2-8.28,9.71-8.28,5.99,0,8.97,2.69,8.56,8.85h-5.99c0-2.2-.37-4.44-2.85-4.44-2,0-3.18,1.1-3.18,3.14,0,5.58,12.4,5.1,12.4,14.35,0,7.62-5.59,8.52-10.28,8.52Z"/>
    <path class="cls-1" d="M436.58,299.68v-29.44h16.07v4.53h-9.91v7.26h9.13v4.53h-9.13v8.6h10.24v4.53h-16.39Z"/>
    <path class="cls-1" d="M463.01,299.68h-6.16v-29.44h11.38c4.2,0,6.89,2.69,6.89,7.71,0,3.75-1.47,6.57-5.46,7.22v.08c1.35.16,5.34.49,5.34,5.79,0,1.88.12,7.42.69,8.64h-6.04c-.81-1.79-.65-3.79-.65-5.71,0-3.51.33-6.48-4.4-6.48h-1.59v12.19ZM463.01,282.96h2.73c2.45,0,3.14-2.45,3.14-4.32,0-2.81-1.18-3.87-3.14-3.87h-2.73v8.2Z"/>
    <path class="cls-1" d="M477.28,270.24h6.4l4.57,21.41h.08l5.14-21.41h6.08l-7.79,29.44h-7.22l-7.26-29.44Z"/>
    <path class="cls-1" d="M502.32,299.68v-29.44h6.16v29.44h-6.16Z"/>
    <path class="cls-1" d="M513.37,284.96c0-7.79,0-15.21,10.15-15.21,6.28,0,8.81,3.47,8.56,9.79h-6.04c0-3.91-.69-5.38-2.53-5.38-3.47,0-3.92,3.26-3.92,10.81s.45,10.81,3.92,10.81c2.85,0,2.73-3.67,2.81-5.99h6.08c0,7.87-3.14,10.4-8.89,10.4-10.15,0-10.15-7.5-10.15-15.21Z"/>
    <path class="cls-1" d="M536.33,299.68v-29.44h16.07v4.53h-9.91v7.26h9.13v4.53h-9.13v8.6h10.24v4.53h-16.39Z"/>
    <path class="cls-1" d="M115.23,319.18h10.28c8.07,0,9.58,5.38,9.58,14.56,0,4.53.69,14.88-9.83,14.88h-10.03v-29.44ZM121.39,344.09h2.98c3.75,0,4.49-2.81,4.49-10.19,0-5.42,0-10.19-4.28-10.19h-3.18v20.39Z"/>
    <path class="cls-1" d="M140.02,348.62v-29.44h16.07v4.53h-9.91v7.26h9.13v4.53h-9.13v8.6h10.24v4.53h-16.39Z"/>
    <path class="cls-1" d="M168.4,349.11c-7.63,0-9.05-4.49-8.73-9.58h6.16c0,2.81.12,5.18,3.51,5.18,2.08,0,3.1-1.35,3.1-3.34,0-5.3-12.4-5.63-12.4-14.4,0-4.61,2.2-8.28,9.71-8.28,5.99,0,8.97,2.69,8.56,8.85h-5.99c0-2.2-.37-4.44-2.85-4.44-2,0-3.18,1.1-3.18,3.14,0,5.58,12.4,5.1,12.4,14.35,0,7.62-5.59,8.52-10.28,8.52Z"/>
    <path class="cls-1" d="M194.21,348.62v-29.44h10.93c4.69,0,8.56,1.35,8.56,7.62,0,3.39-1.67,5.83-5.02,6.48v.08c4.36.61,5.51,3.43,5.51,7.46,0,7.46-6.48,7.79-9.09,7.79h-10.89ZM200.37,331.21h4.12c1.35,0,3.22-.9,3.22-3.75,0-2.16-1.47-3.75-3.55-3.75h-3.79v7.5ZM200.37,344.09h3.43c1.3,0,4.24-.04,4.24-4.16,0-2.61-.98-4.2-4.08-4.2h-3.59v8.36Z"/>
    <path class="cls-1" d="M219.09,348.62v-29.44h6.16v24.55h9.22v4.89h-15.37Z"/>
    <path class="cls-1" d="M236.87,333.9c0-7.79,0-15.21,10.15-15.21s10.15,7.42,10.15,15.21,0,15.21-10.15,15.21-10.15-7.5-10.15-15.21ZM250.94,333.9c0-7.54-.45-10.81-3.91-10.81s-3.92,3.26-3.92,10.81.45,10.81,3.92,10.81,3.91-3.26,3.91-10.81Z"/>
    <path class="cls-1" d="M261.78,333.9c0-7.79,0-15.21,10.15-15.21,6.28,0,8.81,3.47,8.56,9.79h-6.04c0-3.91-.69-5.38-2.53-5.38-3.47,0-3.92,3.26-3.92,10.81s.45,10.81,3.92,10.81c2.85,0,2.73-3.67,2.81-5.99h6.08c0,7.87-3.14,10.4-8.89,10.4-10.15,0-10.15-7.5-10.15-15.21Z"/>
    <path class="cls-1" d="M292.73,349.11c-7.63,0-9.05-4.49-8.73-9.58h6.16c0,2.81.12,5.18,3.51,5.18,2.08,0,3.1-1.35,3.1-3.34,0-5.3-12.4-5.63-12.4-14.4,0-4.61,2.2-8.28,9.71-8.28,5.99,0,8.97,2.69,8.56,8.85h-5.99c0-2.2-.37-4.44-2.85-4.44-2,0-3.18,1.1-3.18,3.14,0,5.58,12.4,5.1,12.4,14.35,0,7.62-5.59,8.52-10.28,8.52Z"/>
    <path class="cls-1" d="M536.29,349.11c-7.63,0-9.05-4.49-8.73-9.58h6.16c0,2.81.12,5.18,3.51,5.18,2.08,0,3.1-1.35,3.1-3.34,0-5.3-12.4-5.63-12.4-14.4,0-4.61,2.2-8.28,9.71-8.28,5.99,0,8.97,2.69,8.56,8.85h-5.99c0-2.2-.37-4.44-2.85-4.44-2,0-3.18,1.1-3.18,3.14,0,5.58,12.4,5.1,12.4,14.35,0,7.62-5.59,8.52-10.28,8.52Z"/>
    <path class="cls-1" d="M316.18,333.9c0-7.79,0-15.21,10.15-15.21s10.15,7.42,10.15,15.21,0,15.21-10.15,15.21-10.15-7.5-10.15-15.21ZM330.25,333.9c0-7.54-.45-10.81-3.91-10.81s-3.92,3.26-3.92,10.81.45,10.81,3.92,10.81,3.91-3.26,3.91-10.81Z"/>
    <path class="cls-1" d="M341.42,319.18h11.09c5.63,0,7.83,3.42,7.83,8.81,0,3.35-.98,8.65-8.2,8.65h-4.57v11.99h-6.16v-29.44ZM347.58,332.1h3.43c1.83,0,3.1-2,3.1-3.96,0-2.4-.65-4.44-3.43-4.44h-3.1v8.4Z"/>
    <path class="cls-1" d="M364.05,348.62v-29.44h16.07v4.53h-9.91v7.26h9.13v4.53h-9.13v8.6h10.24v4.53h-16.39ZM377.35,310.33l-6.53,5.83h-2.65l3.67-5.83h5.51Z"/>
    <path class="cls-1" d="M390.48,348.62h-6.16v-29.44h11.38c4.2,0,6.89,2.69,6.89,7.71,0,3.75-1.47,6.57-5.46,7.22v.08c1.35.16,5.34.49,5.34,5.79,0,1.88.12,7.42.69,8.64h-6.04c-.82-1.79-.65-3.79-.65-5.71,0-3.51.33-6.48-4.4-6.48h-1.59v12.19ZM390.48,331.9h2.73c2.45,0,3.14-2.45,3.14-4.32,0-2.81-1.18-3.87-3.14-3.87h-2.73v8.2Z"/>
    <path class="cls-1" d="M404.87,348.62l8.15-29.44h8.12l7.99,29.44h-6.48l-1.63-6.53h-8.4l-1.67,6.53h-6.08ZM416.74,324.84h-.08l-2.81,12.72h5.87l-2.98-12.72Z"/>
    <path class="cls-1" d="M447.12,319.18v4.89h-6.85v24.55h-6.16v-24.55h-6.85v-4.89h19.86Z"/>
    <path class="cls-1" d="M449.69,333.9c0-7.79,0-15.21,10.15-15.21s10.15,7.42,10.15,15.21,0,15.21-10.15,15.21-10.15-7.5-10.15-15.21ZM463.76,333.9c0-7.54-.45-10.81-3.91-10.81s-3.92,3.26-3.92,10.81.45,10.81,3.92,10.81,3.91-3.26,3.91-10.81Z"/>
    <path class="cls-1" d="M474.89,348.62v-29.44h6.16v29.44h-6.16Z"/>
    <path class="cls-1" d="M492.26,348.62h-6.16v-29.44h11.38c4.2,0,6.89,2.69,6.89,7.71,0,3.75-1.47,6.57-5.46,7.22v.08c1.35.16,5.34.49,5.34,5.79,0,1.88.12,7.42.69,8.64h-6.04c-.81-1.79-.65-3.79-.65-5.71,0-3.51.33-6.48-4.4-6.48h-1.59v12.19ZM492.26,331.9h2.73c2.45,0,3.14-2.45,3.14-4.32,0-2.81-1.18-3.87-3.14-3.87h-2.73v8.2Z"/>
    <path class="cls-1" d="M508.9,348.62v-29.44h16.07v4.53h-9.91v7.26h9.13v4.53h-9.13v8.6h10.24v4.53h-16.39Z"/>
  </g>
  <g>
    <g>
      <path class="cls-1" d="M258.42,102.05c-.92-2.88-2.6-5.36-4.78-7.25-2.84-2.45-6.52-3.9-10.46-3.9h-11.74c-3.94,0-7.62,1.44-10.46,3.9l16.33,51.46,32.49,102.4h35.2l-46.58-146.61Z"/>
      <g>
        <path class="cls-1" d="M153.87,96.87c-1.22,1.51-2.17,3.25-2.79,5.18l-46.51,146.6h35.2l31.13-98.11-17.03-53.67Z"/>
        <path class="cls-1" d="M204.79,137.95l-11.42-35.9c-.92-2.88-2.6-5.36-4.78-7.25-2.84-2.45-6.52-3.9-10.46-3.9h-11.81c-3.91,0-7.58,1.42-10.41,3.85l16.34,51.51,12.28,38.71c1.57,4.96,6.18,8.33,11.38,8.33h16.97c3.2,0,6.18-1.17,8.49-3.16l-16.6-52.18Z"/>
      </g>
      <path class="cls-1" d="M218.94,96.93c-1.19,1.49-2.13,3.21-2.74,5.11l-10.06,31.62,17.25,54.25c.79-1.1,1.43-2.33,1.86-3.67l10.69-33.7-17.01-53.61Z"/>
    </g>
    <g>
      <path class="cls-1" d="M341.84,192.46l-32.06-102.75h-35.84l35.37,111.06,12.28,38.71c1.57,4.96,6.18,8.33,11.38,8.33h16.97c3.2,0,6.18-1.17,8.49-3.16l-16.6-52.18Z"/>
      <path class="cls-1" d="M360.72,242.1c.53-.87,1.27-2.34,1.59-3.35l45.86-149.11-33.71.06-31.02,97.71,17.29,54.68Z"/>
    </g>
    <g>
      <path class="cls-1" d="M548.49,169.18c-1.33,4.82-3.21,9.41-5.58,13.7-7.41,13.44-19.54,23.92-34.16,29.19-6.74,2.43-14.01,3.76-21.59,3.76-2.72,0-5.4-.17-8.03-.5-.03,0-.05,0-.08,0,0,0-.02,0-.03,0,0,0,.02-.01.03-.02v-.02c-21.95-13.51-37.11-36.97-39.21-64.09-5.08,6.97-8.63,15.02-10.32,23.44-.77,3.86-1.16,7.82-1.16,11.77,0,14.61,5.94,30.37,15.82,41.12,7.32,7.96,13.44,12.9,23.62,18.37,7.73,3.68,16.84,3.37,24.33-.96l45.57-26.31c8.1-4.67,13.09-13.31,13.09-22.66v-43.74c0,5.87-.8,11.56-2.29,16.96Z"/>
      <path class="cls-1" d="M441.71,227.31c-9.75-11-15.66-25.47-15.66-41.33,0-4.2.42-8.31,1.21-12.28,1.98-9.89,6.29-18.94,12.34-26.54,0-.01,0-.03,0-.04.03-.02.06-.04.09-.07,11-8.15,24.61-12.97,39.35-12.97,13.07,0,25.25,3.79,35.51,10.33-3.12-6.34-7.3-12.04-12.45-16.99-6.74-6.48-14.99-11.39-23.85-14.19-5.95-1.88-12.15-2.84-18.44-2.84-19.43,0-30.42,5.11-37.49,9.2l-1.94,1.12c-8.1,4.67-13.09,13.31-13.09,22.66,0,14.93,0,37.66,0,52.59,0,9.35,4.99,17.98,13.09,22.66l25.93,14.97,8.15,4.71c-2.01-1.3-3.94-2.72-5.77-4.24-2.5-2.07-4.84-4.33-6.99-6.76Z"/>
      <path class="cls-1" d="M447.66,108.97c3.94-.76,8-1.17,12.16-1.17,6.7,0,13.16,1.04,19.22,2.96,9.43,2.99,17.9,8.11,24.86,14.8,6.22,5.98,11.23,13.22,14.62,21.3v.28c-.8,27.39-14.89,51.43-36.04,65.92,1.56.12,3.12.18,4.68.18,7.11,0,14.07-1.21,20.71-3.61,13.95-5.03,27.71-16.26,34.24-29.63,7.91-16.21,8.59-22.13,8.6-38.58-.64-8.59-5.48-16.37-13.01-20.71l-45.57-26.31c-8.1-4.67-18.07-4.67-26.17,0l-25.7,14.84-11.96,6.91c3.15-1.8,6.48-3.34,9.94-4.59,3.04-1.1,6.19-1.97,9.42-2.59Z"/>
    </g>
  </g>
</svg>