<?xml version="1.0" encoding="UTF-8"?>
<svg id="Calque_1" data-name="Calque 1" xmlns="http://www.w3.org/2000/svg" viewBox="0 0 255.12 255.12">
  <defs>
    <style>
      .cls-1 {
        fill: #fff;
        stroke-width: 0px;
      }
    </style>
  </defs>
  <path class="cls-1" d="M199.86,129.48c-1.33,4.82-3.21,9.41-5.58,13.7-7.41,13.44-19.54,23.92-34.16,29.19-6.74,2.43-14.01,3.76-21.59,3.76-2.72,0-5.4-.17-8.03-.5-.03,0-.05,0-.08,0,0,0-.02,0-.03,0,0,0,.02-.01.03-.02v-.02c-21.95-13.51-37.11-36.97-39.21-64.09-5.08,6.97-8.63,15.02-10.32,23.44-.77,3.86-1.16,7.82-1.16,11.77,0,14.61,5.94,30.37,15.82,41.12,7.32,7.96,13.44,12.9,23.62,18.37,7.73,3.68,16.84,3.37,24.33-.96l45.57-26.31c8.1-4.67,13.09-13.31,13.09-22.66v-43.74c0,5.87-.8,11.56-2.29,16.96Z"/>
  <path class="cls-1" d="M93.09,187.6c-9.75-11-15.66-25.47-15.66-41.33,0-4.2.42-8.31,1.21-12.28,1.98-9.89,6.29-18.94,12.34-26.54,0-.01,0-.03,0-.04.03-.02.06-.04.09-.07,11-8.15,24.61-12.97,39.35-12.97,13.07,0,25.25,3.79,35.51,10.33-3.12-6.34-7.3-12.04-12.45-16.99-6.74-6.48-14.99-11.39-23.85-14.19-5.95-1.88-12.15-2.84-18.44-2.84-19.43,0-30.42,5.11-37.49,9.2l-1.94,1.12c-8.1,4.67-13.09,13.31-13.09,22.66,0,14.93,0,37.66,0,52.59,0,9.35,4.99,17.98,13.09,22.66l25.93,14.97,8.15,4.71c-2.01-1.3-3.94-2.72-5.77-4.24-2.5-2.07-4.84-4.33-6.99-6.76Z"/>
  <path class="cls-1" d="M99.03,69.26c3.94-.76,8-1.17,12.16-1.17,6.7,0,13.16,1.04,19.22,2.96,9.43,2.99,17.9,8.11,24.86,14.8,6.22,5.98,11.23,13.22,14.62,21.3v.28c-.8,27.39-14.89,51.43-36.04,65.92,1.56.12,3.12.18,4.68.18,7.11,0,14.07-1.21,20.71-3.61,13.95-5.03,27.71-16.26,34.24-29.63,7.91-16.21,8.59-22.13,8.6-38.58-.64-8.59-5.48-16.37-13.01-20.71l-45.57-26.31c-8.1-4.67-18.07-4.67-26.17,0l-25.7,14.84-11.96,6.91c3.15-1.8,6.48-3.34,9.94-4.59,3.04-1.1,6.19-1.97,9.42-2.59Z"/>
</svg>