<?xml version="1.0" encoding="UTF-8"?>
<svg id="Calque_1" xmlns="http://www.w3.org/2000/svg" xmlns:xlink="http://www.w3.org/1999/xlink" viewBox="0 0 255.12 255.12">
  <defs>
    <style>
      .cls-1 {
        fill: url(#Dégradé_sans_nom_207);
      }

      .cls-2 {
        fill: url(#Dégradé_sans_nom_207-2);
      }

      .cls-3 {
        fill: url(#Dégradé_sans_nom_207-3);
      }
    </style>
    <linearGradient id="Dégradé_sans_nom_207" data-name="Dégradé sans nom 207" x1="42.35" y1="147.27" x2="136.82" y2="123.65" gradientUnits="userSpaceOnUse">
      <stop offset="0" stop-color="#7fae2a"/>
      <stop offset=".5" stop-color="#0f662d"/>
      <stop offset="1" stop-color="#032510"/>
    </linearGradient>
    <linearGradient id="Dégradé_sans_nom_207-2" data-name="Dégradé sans nom 207" x1="208.26" y1="156.59" x2="99.75" y2="156.59" xlink:href="#Dégradé_sans_nom_207"/>
    <linearGradient id="Dégradé_sans_nom_207-3" data-name="Dégradé sans nom 207" x1="140.86" y1="37.73" x2="140.86" y2="141.07" xlink:href="#Dégradé_sans_nom_207"/>
  </defs>
  <path class="cls-1" d="M155.28,84.09c-6.98-6.72-15.49-11.86-24.95-14.85-6.09-1.93-12.57-2.97-19.29-2.97-4.18,0-8.26.41-12.21,1.17-3.25.63-6.41,1.5-9.46,2.6-3.48,1.25-6.81,2.8-9.98,4.61l-.32.18-7.61,4.39c-8.13,4.69-13.13,13.36-13.13,22.74,0,14.99,0,37.8,0,52.79,0,9.38,5.01,18.05,13.13,22.74l26.03,15.03,8.18,4.73c-2.01-1.31-3.95-2.73-5.79-4.25-2.51-2.08-4.86-4.35-7.01-6.79-9.78-11.04-15.72-25.57-15.72-41.48,0-4.22.42-8.34,1.22-12.32,1.98-9.93,6.31-19.01,12.39-26.64,0-.01,0-.03,0-.04.03-.02.06-.04.09-.07,11.04-8.18,24.7-13.02,39.49-13.02s28.55,4.87,39.61,13.1l.1-.07c-3.4-8.2-8.46-15.53-14.75-21.59Z"/>
  <path class="cls-2" d="M200.03,127.87c-1.34,4.84-3.23,9.45-5.6,13.75-7.44,13.49-19.61,24.01-34.29,29.3-6.77,2.44-14.06,3.77-21.67,3.77-2.73,0-5.42-.17-8.06-.51-.03,0-.05,0-.08,0,0,0-.02,0-.03,0,0,0,.02-.01.03-.02v-.02c-23.12-14.22-38.74-39.44-39.58-68.37-6.08,7.63-10.41,16.71-12.39,26.64-.8,3.98-1.22,8.1-1.22,12.32,0,15.91,5.94,30.43,15.72,41.48,2.16,2.44,4.5,4.71,7.01,6.79,1.85,1.53,3.78,2.94,5.79,4.25l5.73,3.31,5.79,3.34c8.13,4.69,18.14,4.69,26.26,0l45.73-26.4c8.13-4.69,13.13-13.36,13.13-22.75v-43.9c0,5.9-.8,11.6-2.3,17.02Z"/>
  <path class="cls-3" d="M143.46,52.82c-8.13-4.69-18.14-4.69-26.27,0l-25.79,14.89-12.01,6.93c3.17-1.81,6.5-3.36,9.98-4.61,3.05-1.1,6.21-1.97,9.46-2.6,3.95-.77,8.03-1.17,12.21-1.17,6.73,0,13.21,1.04,19.29,2.97,9.46,3,17.97,8.14,24.95,14.85,6.25,6.01,11.27,13.27,14.67,21.38,0,0-.06-.14,0,0v.28c-.85,28.95-16.48,54.18-39.61,68.41v.03c2.67.34,5.38.51,8.13.51,7.61,0,14.9-1.33,21.67-3.77,14.67-5.29,26.85-15.81,34.29-29.3,2.37-4.31,4.26-8.91,5.6-13.75,1.5-5.42,2.3-11.13,2.3-17.02v-8.87c0-9.38-5.01-18.06-13.13-22.75l-45.73-26.4Z"/>
</svg>