<?xml version="1.0" encoding="UTF-8"?>
<svg id="Calque_1" data-name="Calque 1" xmlns="http://www.w3.org/2000/svg" xmlns:xlink="http://www.w3.org/1999/xlink" viewBox="0 0 992 438.76">
  <defs>
    <style>
      .cls-1 {
        fill: url(#Dégradé_sans_nom_207-2);
      }

      .cls-1, .cls-2, .cls-3, .cls-4, .cls-5, .cls-6, .cls-7, .cls-8, .cls-9, .cls-10 {
        stroke-width: 0px;
      }

      .cls-2 {
        fill: url(#Dégradé_sans_nom_207-3);
      }

      .cls-3 {
        fill: #183142;
      }

      .cls-4 {
        fill: url(#Dégradé_sans_nom_269);
      }

      .cls-5 {
        fill: url(#Dégradé_sans_nom_242);
      }

      .cls-6 {
        fill: url(#Dégradé_sans_nom_286);
      }

      .cls-7 {
        fill: url(#Dégradé_sans_nom_284);
      }

      .cls-8 {
        fill: url(#Dégradé_sans_nom_281);
      }

      .cls-9 {
        fill: url(#Dégradé_sans_nom_282);
      }

      .cls-10 {
        fill: url(#Dégradé_sans_nom_207);
      }
    </style>
    <linearGradient id="Dégradé_sans_nom_207" data-name="Dégradé sans nom 207" x1="451.84" y1="243.07" x2="551.64" y2="218.12" gradientUnits="userSpaceOnUse">
      <stop offset="0" stop-color="#7fae2a"/>
      <stop offset=".5" stop-color="#0f662d"/>
      <stop offset="1" stop-color="#032510"/>
    </linearGradient>
    <linearGradient id="Dégradé_sans_nom_207-2" data-name="Dégradé sans nom 207" x1="627.1" y1="252.92" x2="512.48" y2="252.92" xlink:href="#Dégradé_sans_nom_207"/>
    <linearGradient id="Dégradé_sans_nom_207-3" data-name="Dégradé sans nom 207" x1="555.91" y1="127.35" x2="555.91" y2="236.52" xlink:href="#Dégradé_sans_nom_207"/>
    <linearGradient id="Dégradé_sans_nom_286" data-name="Dégradé sans nom 286" x1="293.77" y1="152.82" x2="339.7" y2="304.44" gradientUnits="userSpaceOnUse">
      <stop offset="0" stop-color="#008b9f"/>
      <stop offset=".53" stop-color="#166f85"/>
      <stop offset=".89" stop-color="#0b1b28"/>
    </linearGradient>
    <linearGradient id="Dégradé_sans_nom_282" data-name="Dégradé sans nom 282" x1="168.02" y1="295.88" x2="210.62" y2="172.48" gradientUnits="userSpaceOnUse">
      <stop offset="0" stop-color="#008b9f"/>
      <stop offset=".52" stop-color="#166f85"/>
      <stop offset=".93" stop-color="#0b1b28"/>
    </linearGradient>
    <linearGradient id="Dégradé_sans_nom_281" data-name="Dégradé sans nom 281" x1="235.56" y1="299.14" x2="277.06" y2="176.85" gradientUnits="userSpaceOnUse">
      <stop offset=".19" stop-color="#008b9f"/>
      <stop offset=".61" stop-color="#166f85"/>
      <stop offset=".9" stop-color="#0b1b28"/>
    </linearGradient>
    <linearGradient id="Dégradé_sans_nom_269" data-name="Dégradé sans nom 269" x1="225.94" y1="160.86" x2="253.61" y2="245.51" gradientUnits="userSpaceOnUse">
      <stop offset="0" stop-color="#008b9f"/>
      <stop offset=".53" stop-color="#176f85"/>
      <stop offset=".99" stop-color="#041a29"/>
    </linearGradient>
    <linearGradient id="Dégradé_sans_nom_284" data-name="Dégradé sans nom 284" x1="370.73" y1="384.52" x2="445.65" y2="163.76" gradientUnits="userSpaceOnUse">
      <stop offset=".19" stop-color="#008b9f"/>
      <stop offset=".61" stop-color="#166f85"/>
      <stop offset=".91" stop-color="#0b1b28"/>
    </linearGradient>
    <linearGradient id="Dégradé_sans_nom_242" data-name="Dégradé sans nom 242" x1="355.85" y1="169.56" x2="398.49" y2="300.05" gradientUnits="userSpaceOnUse">
      <stop offset="0" stop-color="#008b9f"/>
      <stop offset=".53" stop-color="#176f85"/>
      <stop offset=".99" stop-color="#041a29"/>
    </linearGradient>
  </defs>
  <g>
    <path class="cls-3" d="M649.37,242.73v-19.12h5.4l5.08,13.24h.05v-13.24h3.73v19.12h-5.27l-5.22-13.98h-.05v13.98h-3.73Z"/>
    <path class="cls-3" d="M666.82,233.17c0-5.06,0-9.88,6.59-9.88s6.59,4.82,6.59,9.88,0,9.88-6.59,9.88-6.59-4.87-6.59-9.88ZM675.96,233.17c0-4.9-.29-7.02-2.54-7.02s-2.54,2.12-2.54,7.02.29,7.02,2.54,7.02,2.54-2.12,2.54-7.02Z"/>
    <path class="cls-3" d="M688.38,243.05c-4.95,0-5.88-2.91-5.67-6.22h4c0,1.83.08,3.36,2.28,3.36,1.35,0,2.01-.87,2.01-2.17,0-3.44-8.05-3.65-8.05-9.35,0-2.99,1.43-5.38,6.3-5.38,3.89,0,5.83,1.75,5.56,5.75h-3.89c0-1.43-.24-2.89-1.85-2.89-1.3,0-2.07.71-2.07,2.04,0,3.63,8.05,3.31,8.05,9.32,0,4.95-3.63,5.54-6.67,5.54Z"/>
    <path class="cls-3" d="M703.79,242.73v-19.12h10.43v2.94h-6.44v4.71h5.93v2.94h-5.93v5.59h6.65v2.94h-10.65Z"/>
    <path class="cls-3" d="M715.79,223.61h4.55l2.73,6.28,2.67-6.28h4.16l-4.77,9.46,4.85,9.67h-4.53l-2.94-6.59-2.94,6.59h-4.13l4.95-10.01-4.61-9.11Z"/>
    <path class="cls-3" d="M731.79,223.61h7.2c3.65,0,5.08,2.23,5.08,5.72,0,2.17-.64,5.61-5.32,5.61h-2.97v7.79h-4v-19.12ZM735.78,232.01h2.22c1.19,0,2.01-1.3,2.01-2.57,0-1.56-.42-2.89-2.22-2.89h-2.01v5.45Z"/>
    <path class="cls-3" d="M746.48,242.73v-19.12h10.43v2.94h-6.44v4.71h5.93v2.94h-5.93v5.59h6.65v2.94h-10.65Z"/>
    <path class="cls-3" d="M763.64,242.73h-4v-19.12h7.39c2.73,0,4.48,1.75,4.48,5.01,0,2.44-.95,4.26-3.55,4.69v.05c.87.1,3.47.32,3.47,3.76,0,1.22.08,4.82.45,5.62h-3.92c-.53-1.17-.42-2.46-.42-3.71,0-2.28.21-4.21-2.86-4.21h-1.03v7.92ZM763.64,231.87h1.77c1.59,0,2.04-1.59,2.04-2.81,0-1.83-.77-2.52-2.04-2.52h-1.77v5.32Z"/>
    <path class="cls-3" d="M785.84,223.61v3.18h-4.45v15.94h-4v-15.94h-4.45v-3.18h12.9Z"/>
    <path class="cls-3" d="M792.88,243.05c-4.95,0-5.88-2.91-5.67-6.22h4c0,1.83.08,3.36,2.28,3.36,1.35,0,2.01-.87,2.01-2.17,0-3.44-8.05-3.65-8.05-9.35,0-2.99,1.43-5.38,6.3-5.38,3.89,0,5.83,1.75,5.56,5.75h-3.89c0-1.43-.24-2.89-1.85-2.89-1.3,0-2.07.71-2.07,2.04,0,3.63,8.05,3.31,8.05,9.32,0,4.95-3.63,5.54-6.67,5.54Z"/>
    <path class="cls-3" d="M647.89,274.51l5.3-19.12h5.27l5.19,19.12h-4.21l-1.06-4.24h-5.46l-1.09,4.24h-3.95ZM655.6,259.07h-.05l-1.83,8.26h3.81l-1.93-8.26Z"/>
    <path class="cls-3" d="M678.45,255.39v13.56c0,2.86-1.62,5.88-6.49,5.88-4.4,0-6.51-2.28-6.51-5.88v-13.56h4v13.29c0,2.36,1.01,3.28,2.46,3.28,1.75,0,2.54-1.17,2.54-3.28v-13.29h4Z"/>
    <path class="cls-3" d="M692.78,274.83c-4.95,0-5.88-2.91-5.67-6.22h4c0,1.83.08,3.36,2.28,3.36,1.35,0,2.01-.87,2.01-2.17,0-3.44-8.05-3.65-8.05-9.35,0-2.99,1.43-5.38,6.3-5.38,3.89,0,5.83,1.75,5.56,5.75h-3.89c0-1.43-.24-2.89-1.85-2.89-1.3,0-2.07.72-2.07,2.04,0,3.63,8.05,3.31,8.05,9.32,0,4.95-3.63,5.53-6.67,5.53Z"/>
    <path class="cls-3" d="M702.31,274.51v-19.12h10.43v2.94h-6.44v4.71h5.93v2.94h-5.93v5.59h6.65v2.94h-10.65Z"/>
    <path class="cls-3" d="M719.47,274.51h-4v-19.12h7.39c2.73,0,4.48,1.75,4.48,5,0,2.44-.95,4.26-3.55,4.69v.05c.87.11,3.47.32,3.47,3.76,0,1.22.08,4.82.45,5.61h-3.92c-.53-1.16-.42-2.46-.42-3.71,0-2.28.21-4.21-2.86-4.21h-1.03v7.92ZM719.47,263.65h1.77c1.59,0,2.04-1.59,2.04-2.81,0-1.83-.77-2.52-2.04-2.52h-1.77v5.32Z"/>
    <path class="cls-3" d="M728.74,255.39h4.16l2.97,13.9h.05l3.34-13.9h3.95l-5.06,19.12h-4.69l-4.71-19.12Z"/>
    <path class="cls-3" d="M745,274.51v-19.12h4v19.12h-4Z"/>
    <path class="cls-3" d="M752.18,264.95c0-5.06,0-9.88,6.59-9.88,4.08,0,5.72,2.25,5.56,6.36h-3.92c0-2.54-.45-3.5-1.64-3.5-2.25,0-2.54,2.12-2.54,7.02s.29,7.02,2.54,7.02c1.85,0,1.77-2.38,1.83-3.89h3.95c0,5.11-2.04,6.75-5.77,6.75-6.59,0-6.59-4.87-6.59-9.88Z"/>
    <path class="cls-3" d="M767.09,274.51v-19.12h10.43v2.94h-6.44v4.71h5.93v2.94h-5.93v5.59h6.65v2.94h-10.65Z"/>
    <path class="cls-3" d="M786.29,255.39h6.67c5.24,0,6.22,3.5,6.22,9.45,0,2.94.45,9.67-6.38,9.67h-6.51v-19.12ZM790.28,271.57h1.93c2.44,0,2.91-1.83,2.91-6.62,0-3.52,0-6.62-2.78-6.62h-2.07v13.24Z"/>
    <path class="cls-3" d="M802.39,274.51v-19.12h10.43v2.94h-6.44v4.71h5.93v2.94h-5.93v5.59h6.65v2.94h-10.65Z"/>
    <path class="cls-3" d="M820.82,274.83c-4.95,0-5.88-2.91-5.67-6.22h4c0,1.83.08,3.36,2.28,3.36,1.35,0,2.01-.87,2.01-2.17,0-3.44-8.05-3.65-8.05-9.35,0-2.99,1.43-5.38,6.3-5.38,3.89,0,5.83,1.75,5.56,5.75h-3.89c0-1.43-.24-2.89-1.85-2.89-1.3,0-2.07.72-2.07,2.04,0,3.63,8.05,3.31,8.05,9.32,0,4.95-3.63,5.53-6.67,5.53Z"/>
    <path class="cls-3" d="M649.4,306.29v-19.12h7.1c3.05,0,5.56.87,5.56,4.95,0,2.2-1.09,3.79-3.26,4.21v.05c2.83.4,3.58,2.23,3.58,4.85,0,4.85-4.21,5.06-5.91,5.06h-7.07ZM653.4,294.98h2.67c.87,0,2.09-.58,2.09-2.44,0-1.4-.95-2.44-2.3-2.44h-2.46v4.87ZM653.4,303.35h2.22c.85,0,2.75-.03,2.75-2.7,0-1.7-.64-2.73-2.65-2.73h-2.33v5.43Z"/>
    <path class="cls-3" d="M665.55,306.29v-19.12h4v15.94h5.98v3.18h-9.98Z"/>
    <path class="cls-3" d="M677.1,296.73c0-5.06,0-9.88,6.59-9.88s6.59,4.82,6.59,9.88,0,9.88-6.59,9.88-6.59-4.87-6.59-9.88ZM686.24,296.73c0-4.9-.29-7.02-2.54-7.02s-2.54,2.12-2.54,7.02.29,7.02,2.54,7.02,2.54-2.12,2.54-7.02Z"/>
    <path class="cls-3" d="M693.28,296.73c0-5.06,0-9.88,6.59-9.88,4.08,0,5.72,2.25,5.56,6.36h-3.92c0-2.54-.45-3.5-1.64-3.5-2.25,0-2.54,2.12-2.54,7.02s.29,7.02,2.54,7.02c1.85,0,1.77-2.38,1.83-3.89h3.95c0,5.11-2.04,6.75-5.77,6.75-6.59,0-6.59-4.87-6.59-9.88Z"/>
    <path class="cls-3" d="M713.38,306.61c-4.95,0-5.88-2.91-5.67-6.22h4c0,1.83.08,3.36,2.28,3.36,1.35,0,2.01-.87,2.01-2.17,0-3.44-8.05-3.65-8.05-9.35,0-2.99,1.43-5.38,6.3-5.38,3.89,0,5.83,1.75,5.56,5.75h-3.89c0-1.43-.24-2.89-1.85-2.89-1.3,0-2.07.72-2.07,2.04,0,3.63,8.05,3.31,8.05,9.32,0,4.95-3.63,5.53-6.67,5.53Z"/>
    <path class="cls-3" d="M871.55,306.61c-4.95,0-5.88-2.91-5.67-6.22h4c0,1.83.08,3.36,2.28,3.36,1.35,0,2.01-.87,2.01-2.17,0-3.44-8.05-3.65-8.05-9.35,0-2.99,1.43-5.38,6.3-5.38,3.89,0,5.83,1.75,5.56,5.75h-3.89c0-1.43-.24-2.89-1.85-2.89-1.3,0-2.07.72-2.07,2.04,0,3.63,8.05,3.31,8.05,9.32,0,4.95-3.63,5.53-6.67,5.53Z"/>
    <path class="cls-3" d="M728.61,296.73c0-5.06,0-9.88,6.59-9.88s6.59,4.82,6.59,9.88,0,9.88-6.59,9.88-6.59-4.87-6.59-9.88ZM737.74,296.73c0-4.9-.29-7.02-2.54-7.02s-2.54,2.12-2.54,7.02.29,7.02,2.54,7.02,2.54-2.12,2.54-7.02Z"/>
    <path class="cls-3" d="M745,287.17h7.2c3.65,0,5.08,2.22,5.08,5.72,0,2.17-.64,5.62-5.32,5.62h-2.97v7.79h-4v-19.12ZM749,295.56h2.22c1.19,0,2.01-1.3,2.01-2.57,0-1.56-.42-2.89-2.22-2.89h-2.01v5.45Z"/>
    <path class="cls-3" d="M759.7,306.29v-19.12h10.43v2.94h-6.44v4.71h5.93v2.94h-5.93v5.59h6.65v2.94h-10.65ZM768.33,281.42l-4.24,3.79h-1.72l2.38-3.79h3.58Z"/>
    <path class="cls-3" d="M776.86,306.29h-4v-19.12h7.39c2.73,0,4.48,1.75,4.48,5,0,2.44-.95,4.26-3.55,4.69v.05c.87.11,3.47.32,3.47,3.76,0,1.22.08,4.82.45,5.61h-3.92c-.53-1.16-.42-2.46-.42-3.71,0-2.28.21-4.21-2.86-4.21h-1.03v7.92ZM776.86,295.43h1.77c1.59,0,2.04-1.59,2.04-2.81,0-1.83-.77-2.52-2.04-2.52h-1.77v5.32Z"/>
    <path class="cls-3" d="M786.21,306.29l5.3-19.12h5.27l5.19,19.12h-4.21l-1.06-4.24h-5.45l-1.09,4.24h-3.95ZM793.91,290.85h-.05l-1.83,8.26h3.81l-1.93-8.26Z"/>
    <path class="cls-3" d="M813.64,287.17v3.18h-4.45v15.94h-4v-15.94h-4.45v-3.18h12.9Z"/>
    <path class="cls-3" d="M815.31,296.73c0-5.06,0-9.88,6.59-9.88s6.59,4.82,6.59,9.88,0,9.88-6.59,9.88-6.59-4.87-6.59-9.88ZM824.45,296.73c0-4.9-.29-7.02-2.54-7.02s-2.54,2.12-2.54,7.02.29,7.02,2.54,7.02,2.54-2.12,2.54-7.02Z"/>
    <path class="cls-3" d="M831.68,306.29v-19.12h4v19.12h-4Z"/>
    <path class="cls-3" d="M842.96,306.29h-4v-19.12h7.39c2.73,0,4.48,1.75,4.48,5,0,2.44-.95,4.26-3.55,4.69v.05c.87.11,3.47.32,3.47,3.76,0,1.22.08,4.82.45,5.61h-3.92c-.53-1.16-.42-2.46-.42-3.71,0-2.28.21-4.21-2.86-4.21h-1.03v7.92ZM842.96,295.43h1.77c1.59,0,2.04-1.59,2.04-2.81,0-1.83-.77-2.52-2.04-2.52h-1.77v5.32Z"/>
    <path class="cls-3" d="M853.76,306.29v-19.12h10.43v2.94h-6.44v4.71h5.93v2.94h-5.93v5.59h6.65v2.94h-10.65Z"/>
  </g>
  <g>
    <path class="cls-10" d="M571.14,176.32c-7.38-7.09-16.36-12.52-26.36-15.69-6.43-2.04-13.28-3.14-20.38-3.14-4.41,0-8.72.43-12.9,1.24-3.43.66-6.77,1.59-9.99,2.75-3.67,1.32-7.2,2.96-10.54,4.87l-.34.19-8.04,4.64c-8.59,4.96-13.87,14.11-13.87,24.02,0,15.83,0,39.93,0,55.76,0,9.91,5.29,19.07,13.87,24.02l27.49,15.87,8.65,4.99c-2.13-1.38-4.17-2.88-6.12-4.49-2.65-2.19-5.13-4.59-7.41-7.17-10.33-11.67-16.61-27.01-16.61-43.82,0-4.46.44-8.81,1.28-13.02,2.09-10.49,6.67-20.08,13.09-28.14,0-.02,0-.03,0-.05.03-.02.06-.05.09-.07,11.66-8.64,26.09-13.75,41.72-13.75s30.16,5.15,41.85,13.84l.1-.08c-3.59-8.66-8.93-16.41-15.59-22.8Z"/>
    <path class="cls-1" d="M618.41,222.58c-1.41,5.11-3.41,9.98-5.91,14.53-7.86,14.25-20.72,25.36-36.22,30.95-7.15,2.58-14.85,3.99-22.89,3.99-2.89,0-5.73-.18-8.52-.53-.03,0-.06,0-.08-.01-.01,0-.02,0-.03,0,.01,0,.02-.01.03-.02v-.02c-24.42-15.03-40.92-41.67-41.81-72.23-6.42,8.06-10.99,17.65-13.09,28.14-.84,4.21-1.28,8.56-1.28,13.02,0,16.81,6.28,32.15,16.61,43.82,2.28,2.58,4.76,4.97,7.41,7.17,1.95,1.61,3.99,3.11,6.12,4.49l6.06,3.5,6.11,3.53c8.58,4.96,19.16,4.96,27.75,0l48.31-27.89c8.58-4.96,13.87-14.12,13.87-24.03v-46.37c0,6.23-.85,12.26-2.43,17.98Z"/>
    <path class="cls-2" d="M558.65,143.3c-8.58-4.96-19.16-4.96-27.75,0l-27.25,15.73-12.69,7.32c3.34-1.91,6.87-3.55,10.54-4.87,3.22-1.16,6.56-2.09,9.99-2.75,4.17-.81,8.48-1.24,12.9-1.24,7.1,0,13.95,1.1,20.38,3.14,10,3.17,18.98,8.59,26.36,15.69,6.6,6.34,11.91,14.02,15.5,22.59,0,0-.06-.14,0,0v.29c-.89,30.58-17.41,57.23-41.84,72.26v.04c2.82.36,5.68.54,8.59.54,8.04,0,15.74-1.41,22.89-3.99,15.5-5.59,28.36-16.7,36.22-30.95,2.51-4.55,4.5-9.42,5.91-14.53,1.58-5.73,2.43-11.76,2.43-17.98v-9.37c0-9.91-5.29-19.07-13.87-24.03l-48.31-27.89Z"/>
  </g>
  <g>
    <path class="cls-6" d="M310.87,151.4c-.97-3.06-2.76-5.69-5.07-7.69-3.01-2.6-6.91-4.13-11.09-4.13h-12.44c-4.18,0-8.08,1.53-11.09,4.13l17.31,54.56,34.45,108.57h37.32l-49.39-155.44Z"/>
    <path class="cls-9" d="M197.06,151.41l-49.32,155.43h37.32l34.45-108.57-17.33-54.61c-2.34,2.01-4.15,4.66-5.13,7.74Z"/>
    <g>
      <path class="cls-8" d="M275.71,238.55l12.78-40.28-17.31-54.56c-2.31,2-4.1,4.63-5.07,7.68l-12.11,38.07,17.6,55.33c1.88-1.62,3.32-3.76,4.11-6.24Z"/>
      <path class="cls-4" d="M254.01,189.46l-12.11-38.07c-.97-3.06-2.76-5.69-5.07-7.68-3.01-2.6-6.91-4.13-11.09-4.13h-12.52c-4.15,0-8.03,1.51-11.03,4.08l17.33,54.61,13.02,41.04c1.67,5.26,6.55,8.83,12.07,8.83h17.99c3.39,0,6.56-1.24,9-3.35l-17.6-55.33Z"/>
    </g>
  </g>
  <g>
    <path class="cls-7" d="M421.02,296.35l48.63-158.09-35.74.06-34.59,108.94,17.6,55.33c1.88-1.62,3.32-3.76,4.11-6.24Z"/>
    <path class="cls-5" d="M399.31,247.26l-33.99-108.94h-38l37.5,117.75,13.02,41.04c1.67,5.26,6.55,8.83,12.07,8.83h17.99c3.39,0,6.56-1.24,9-3.35l-17.6-55.33Z"/>
  </g>
</svg>